<?xml version="1.0" encoding="utf-8"?>
<svg viewBox="197.753 330.787 1538.876 1315.954" xmlns="http://www.w3.org/2000/svg"  height="100" width="100" xmlns:bx="https://boxy-svg.com">
  <defs>
    <radialGradient gradientUnits="userSpaceOnUse" cx="960.241" cy="960.032" r="742.241" id="gradient-1" spreadMethod="pad">
      <stop offset="0" style="stop-color: rgb(89.804% 76.863% 56.471%)"/>
      <stop offset="1" style="stop-color: rgb(54.324% 43.408% 24.696%)"/>
    </radialGradient>
    <filter id="drop-shadow-filter-0" color-interpolation-filters="sRGB" x="-50%" y="-50%" width="64" height="64" bx:preset="drop-shadow 1 10 10 0 0.5 #ff540074">
      <feGaussianBlur in="SourceAlpha" stdDeviation="0"/>
      <feOffset dx="10" dy="10"/>
      <feComponentTransfer result="offsetblur">
        <feFuncA id="spread-ctrl" type="linear" slope="1"/>
      </feComponentTransfer>
      <feFlood flood-color="#ff540074"/>
      <feComposite in2="offsetblur" operator="in"/>
      <feMerge>
        <feMergeNode/>
        <feMergeNode in="SourceGraphic"/>
      </feMerge>
    </filter>
    <filter id="point-light-filter-0" primitiveUnits="objectBoundingBox" color-interpolation-filters="sRGB" x="-50%" y="-50%" width="200%" height="200%" bx:preset="point-light 1 0.5 0.5 0.5 1 0.93 0.42 0.51 #ffffff">
      <feSpecularLighting result="specular-lighting" lighting-color="#ffffff" specularConstant="0.93" specularExponent="1">
        <fePointLight x="0.5" y="0.5" z="0.5"/>
      </feSpecularLighting>
      <feDiffuseLighting result="diffuse-lighting" lighting-color="#ffffff" diffuseConstant="0.42">
        <fePointLight x="0.5" y="0.5" z="0.5"/>
      </feDiffuseLighting>
      <feMerge result="lighting">
        <feMergeNode in="diffuse-lighting"/>
        <feMergeNode in="specular-lighting"/>
      </feMerge>
      <feComposite in="SourceGraphic" in2="lighting" operator="arithmetic" k1="1" k2="0.51" k3="0" k4="0"/>
    </filter>
    <filter id="grayscale-filter-0" color-interpolation-filters="sRGB" x="-50%" y="-50%" width="200%" height="200%" bx:preset="grayscale 1 1">
      <feColorMatrix type="matrix" values="0.213 0.715 0.072 0 0 0.213 0.715 0.072 0 0 0.213 0.715 0.072 0 0 0 0 0 1 0"/>
    </filter>
  </defs>
  <path d="M 1143.500 353.064 C 979.390 359.121, 829.814 391.130, 694 449.256 C 669.872 459.583, 625.176 481.445, 602.500 494.012 C 545.974 525.337, 494.624 560.443, 446.250 600.833 L 430 614.401 430.010 621.451 C 430.016 625.328, 430.474 638.625, 431.028 651 C 437.236 789.649, 466.991 944.361, 511.474 1069.282 C 514.454 1077.652, 516.579 1084.771, 516.196 1085.101 C 515.813 1085.432, 508.525 1087.340, 500 1089.340 C 491.475 1091.341, 473.250 1095.702, 459.500 1099.031 C 445.750 1102.360, 419.425 1108.687, 401 1113.091 C 382.575 1117.494, 366.738 1121.323, 365.806 1121.598 C 364.757 1121.908, 362.603 1125.979, 360.142 1132.299 C 302.996 1279.108, 218 1500.747, 218 1502.958 C 218 1503.619, 218.767 1503.897, 219.750 1503.592 C 220.713 1503.294, 254.350 1495.141, 294.500 1485.475 C 334.650 1475.809, 385.050 1463.671, 406.500 1458.501 C 427.950 1453.331, 465.075 1444.384, 489 1438.619 C 512.925 1432.855, 567.176 1419.782, 609.558 1409.569 C 651.939 1399.356, 687.089 1391, 687.667 1391 C 688.245 1391, 694.416 1397.507, 701.380 1405.460 C 754.195 1465.778, 815.253 1516.902, 883.463 1557.918 L 900.081 1567.911 910.791 1564.065 C 968.725 1543.260, 1022.324 1518.032, 1072 1488.188 C 1173.605 1427.148, 1260.310 1346.728, 1330.962 1248 C 1336.670 1240.025, 1341.600 1233.188, 1341.919 1232.806 C 1342.239 1232.424, 1385.126 1221.743, 1437.224 1209.069 C 1489.322 1196.396, 1537.487 1184.639, 1544.258 1182.943 L 1556.569 1179.860 1573.419 1135.680 C 1582.687 1111.381, 1599.005 1068.356, 1609.682 1040.068 C 1629.053 988.751, 1649.621 935.404, 1684.314 846.500 C 1694.402 820.650, 1702.578 799.382, 1702.482 799.238 C 1702.387 799.094, 1680.077 804.399, 1652.905 811.027 C 1625.732 817.654, 1581.428 828.460, 1554.452 835.038 C 1527.475 841.617, 1505.151 847, 1504.842 847 C 1504.533 847, 1506.012 838.389, 1508.130 827.864 C 1523.472 751.605, 1530.754 682.167, 1531.713 603 C 1532.696 521.883, 1528.440 472.835, 1513.684 395.235 C 1512.924 391.239, 1512.044 387.711, 1511.728 387.395 C 1509.931 385.598, 1469.397 376.774, 1441.432 372.092 C 1347.921 356.435, 1239.603 349.517, 1143.500 353.064 M 1152.872 381.089 C 883.658 388.904, 647.641 470.752, 468.645 618.371 L 457.789 627.323 458.451 642.412 C 465.176 795.810, 497.202 954.526, 548.947 1090.901 C 551.744 1098.271, 553.880 1104.453, 553.695 1104.639 C 553.369 1104.964, 524.789 1111.921, 429.617 1134.841 L 384.735 1145.649 382.476 1151.575 C 380.072 1157.883, 337.150 1268.680, 331.563 1283 C 326.349 1296.366, 287.257 1398.232, 274.192 1432.500 C 266.833 1451.801, 262.809 1463.611, 263.530 1463.793 C 264.572 1464.057, 295.236 1456.747, 487.500 1410.399 C 518.300 1402.974, 553.625 1394.461, 566 1391.481 C 578.375 1388.501, 612.786 1380.198, 642.469 1373.031 C 672.152 1365.864, 697.127 1360.006, 697.969 1360.012 C 698.811 1360.019, 702.875 1364.149, 707 1369.190 C 734.994 1403.398, 771.262 1439.968, 806.308 1469.323 C 830.756 1489.802, 867.707 1516.185, 893.480 1531.565 L 903.083 1537.296 914.786 1533.024 C 960.238 1516.431, 1014.225 1490.497, 1058 1464.227 C 1159.726 1403.179, 1246.047 1321.508, 1318.212 1218.037 L 1325.510 1207.573 1351.505 1201.300 C 1383.638 1193.546, 1486.107 1168.583, 1514.500 1161.592 L 1535.500 1156.422 1537.880 1150.461 C 1542.125 1139.831, 1572.821 1059.361, 1584.975 1027 C 1600.990 984.362, 1611.032 958.173, 1635.930 894.118 C 1647.557 864.208, 1656.861 839.528, 1656.607 839.274 C 1656.353 839.020, 1613.703 849.170, 1561.830 861.830 C 1509.956 874.490, 1467.404 884.738, 1467.269 884.603 C 1467.135 884.468, 1469.245 874.940, 1471.960 863.429 C 1488.779 792.116, 1499.110 719.353, 1502.974 645 C 1505.178 602.578, 1504.093 539.625, 1500.439 498 C 1497.484 464.332, 1489.952 412.680, 1487.652 410.315 C 1486.286 408.910, 1463.540 404.238, 1435 399.500 C 1370.885 388.856, 1309.837 383.167, 1236.500 381.003 C 1200.339 379.936, 1192.299 379.945, 1152.872 381.089 M 1144 446.683 C 1096.427 448.495, 1036.527 454.278, 990.566 461.497 C 981.803 462.874, 974.040 464, 973.316 464 C 972.592 464, 972 464.337, 972.001 464.750 C 972.001 465.163, 977.964 466.545, 985.251 467.822 C 1001.754 470.713, 1030.623 477.733, 1046.634 482.747 L 1058.768 486.547 1077.634 484.856 C 1145.981 478.732, 1193.052 478.646, 1245.500 484.549 C 1267.284 487, 1278.801 488.635, 1333.890 497.094 L 1362.280 501.454 1361.688 563.477 C 1361.018 633.723, 1359.205 669.891, 1353.891 719 C 1346.036 791.599, 1333.823 851.280, 1314.838 909.836 C 1312.638 916.621, 1310.996 922.330, 1311.190 922.523 C 1311.769 923.102, 1392.079 903.323, 1392.998 902.375 C 1394.068 901.271, 1403.018 868.311, 1407.626 848.500 C 1423.135 781.827, 1431.813 724.236, 1436.632 656 C 1438.938 623.346, 1438.930 553.689, 1436.617 523.500 C 1435.021 502.670, 1431.225 465.892, 1430.607 465.274 C 1430.046 464.712, 1391.150 459.009, 1371 456.533 C 1333.129 451.880, 1296.994 448.885, 1256 447 C 1236.961 446.124, 1164.083 445.918, 1144 446.683 M 792.192 492.480 C 756.830 501.497, 717.799 517.657, 689 535.203 C 658.987 553.489, 638.486 574.486, 631.829 593.757 C 628.373 603.763, 628.529 619.016, 632.177 627.779 C 635.244 635.147, 641.333 645.502, 641.790 644.129 C 641.965 643.605, 641.385 640.548, 640.500 637.338 C 639.616 634.127, 638.688 626.550, 638.438 620.500 L 637.985 609.500 639.898 618.205 C 641.854 627.101, 645.830 637.049, 648.694 640.214 C 650.192 641.870, 650.547 641.462, 654.259 633.835 C 661.055 619.868, 675.889 606.584, 695.915 596.531 C 722.351 583.260, 761.903 573.998, 809 570.048 C 823.613 568.823, 858 567.537, 858 568.216 C 858 568.499, 854.962 569.749, 851.250 570.995 C 836.002 576.112, 822.350 584.725, 816.876 592.680 C 815.241 595.056, 814.175 597, 814.506 597 C 814.837 597, 820.146 595.696, 826.304 594.103 C 858.125 585.868, 875.461 583.495, 903 583.605 C 922.139 583.681, 926.620 583.994, 933 585.695 L 940.500 587.694 923 587.772 C 913.375 587.814, 901.450 588.346, 896.500 588.954 C 869.256 592.298, 849.641 601.768, 843.936 614.332 C 840.644 621.584, 841.097 622.132, 848.064 619.318 C 861.045 614.075, 879.569 612.434, 891.297 615.489 C 897.090 616.998, 908.397 622.215, 909.404 623.844 C 909.708 624.336, 907.841 624.290, 905.227 623.742 C 902.627 623.197, 893.750 622.739, 885.500 622.725 C 860.816 622.681, 848.347 627.270, 834.481 641.500 C 818.227 658.181, 801.922 664.748, 776 665.055 L 765.500 665.179 770.500 666.730 C 778.088 669.085, 803.457 669.037, 812 666.652 C 821.451 664.013, 833.869 657.935, 843.105 651.426 C 853.107 644.377, 861.414 641.425, 875.172 640.030 C 910.899 636.407, 962.291 651.516, 1005.809 678.436 C 1043.227 701.582, 1072.436 732.154, 1091.601 768.231 C 1095.186 774.979, 1097.898 779.600, 1097.627 778.500 C 1089.940 747.242, 1075.709 716.658, 1057.147 691.507 C 1047.751 678.777, 1028.243 659.462, 1015.990 650.760 C 1004.401 642.529, 985.919 633.066, 972.500 628.493 L 962.500 625.086 972.105 625.043 C 983.798 624.991, 1003.840 626.537, 1018 628.584 C 1067.500 635.741, 1108.594 651.206, 1141 674.876 C 1153.095 683.711, 1147.013 677.975, 1128.584 663.168 C 1056.272 605.068, 986.355 568.433, 921.369 554.593 L 910.500 552.278 916 551.661 C 929.385 550.159, 978.773 548.760, 999.639 549.292 C 1023.784 549.908, 1036.811 551.444, 1053.500 555.642 C 1081.632 562.720, 1108.286 576.705, 1136.065 598.963 C 1148.531 608.952, 1185.650 645.880, 1199.429 662 C 1217.075 682.645, 1252.815 728.316, 1265.208 746.055 C 1268.580 750.882, 1264.220 739.896, 1256.596 724.354 C 1240.199 690.929, 1217.139 656.698, 1185.622 619 C 1171.301 601.870, 1141.403 571.495, 1128.028 560.489 C 1118.727 552.834, 1118.628 552.708, 1122.518 553.437 C 1124.697 553.846, 1131.659 555.769, 1137.990 557.710 C 1154.063 562.638, 1154.008 562.631, 1149.494 559.216 C 1131.433 545.554, 1094.889 527.421, 1065.590 517.583 C 985.856 490.813, 884.699 485.946, 790.797 504.362 C 784.360 505.625, 779.301 506.322, 779.554 505.912 C 780.136 504.970, 793.512 497.258, 801.750 493.115 C 812.120 487.899, 810.562 487.795, 792.192 492.480 M 1172.500 519.738 C 1173.050 520.282, 1176.907 522.998, 1181.070 525.773 C 1190.020 531.738, 1205.694 543.852, 1215.500 552.382 C 1225.138 560.767, 1256 589.144, 1256 589.622 C 1256 589.836, 1248.355 586.184, 1239.011 581.506 C 1229.667 576.828, 1221.803 573, 1221.535 573 C 1221.266 573, 1224.214 576.938, 1228.084 581.750 C 1237.591 593.572, 1256.189 621.595, 1265.083 637.500 C 1272.927 651.527, 1283.587 673.325, 1291.982 692.500 C 1302.537 716.610, 1306.039 721.818, 1309.420 718.437 C 1313.219 714.638, 1315.842 699.181, 1326.973 615 C 1331.373 581.725, 1335.512 550.555, 1336.171 545.734 C 1336.911 540.315, 1337.012 536.640, 1336.434 536.107 C 1334.591 534.408, 1299.299 528.354, 1272 525.055 C 1237.697 520.908, 1170.028 517.293, 1172.500 519.738 M 782 600.732 C 775.125 604.218, 769.599 607.465, 769.721 607.948 C 769.842 608.430, 768.609 609.289, 766.981 609.857 C 765.352 610.424, 762.832 612.077, 761.380 613.529 C 758.971 615.938, 758.879 616.307, 760.325 617.754 C 761.772 619.200, 762.263 619.200, 765.955 617.750 C 770.601 615.925, 771.164 616.849, 768.520 621.961 C 765.122 628.532, 756.734 632.026, 749.332 629.953 C 745.290 628.821, 738.950 623.349, 737.846 620.039 C 737.547 619.141, 733.421 620.074, 722.994 623.398 C 715.053 625.929, 708.007 628, 707.337 628 C 699.586 628, 720.255 638.645, 735.663 642.589 C 746.443 645.348, 758.819 645.997, 765.515 644.154 C 780.006 640.167, 790.441 624.964, 794.052 602.578 C 794.729 598.382, 795.107 594.824, 794.891 594.672 C 794.676 594.519, 788.875 597.246, 782 600.732 M 577.415 619.159 C 567.562 625.848, 551.737 637.128, 542.250 644.227 C 526.212 656.226, 525 657.357, 525 660.326 C 525 668.372, 530.642 732.121, 531.605 734.964 C 531.878 735.770, 533.550 732.836, 535.321 728.445 C 539.246 718.709, 546.332 707.860, 554.431 699.186 L 560.500 692.686 560.500 682.642 L 560.500 672.599 572.487 664.049 C 579.080 659.347, 588.637 651.330, 593.725 646.234 L 602.975 636.968 600.561 629.734 C 599.233 625.755, 597.695 619.193, 597.142 615.152 C 596.589 611.110, 595.955 607.622, 595.734 607.400 C 595.512 607.178, 587.269 612.470, 577.415 619.159 M 653.500 666.992 C 646.249 668.590, 624.709 676.963, 612.430 682.956 C 584.644 696.517, 565.440 713.399, 557.632 731.129 C 551.704 744.589, 548.715 767.785, 550.944 783.028 C 554.970 810.561, 571.286 831.262, 599.493 844.624 C 611.274 850.205, 612.433 850.271, 609.995 845.226 C 604.680 834.225, 603.398 816.397, 607.068 804.514 C 610.274 794.134, 613.098 789.544, 621.741 780.662 C 637.105 764.873, 662.463 753.665, 693.500 748.944 C 697.350 748.359, 720.750 747.499, 745.500 747.034 C 794.113 746.120, 801.751 745.422, 822.837 739.965 C 835.826 736.604, 848.562 731.748, 861.500 725.224 C 872.017 719.921, 877.602 719.399, 887.491 722.795 C 890.785 723.926, 893.710 724.623, 893.990 724.344 C 894.847 723.486, 885.819 716.247, 880 713.127 C 870.357 707.956, 863.867 706.542, 850 706.594 C 835.201 706.650, 827.941 707.934, 796.134 716.121 C 769.314 723.025, 762.640 723.858, 752.094 721.617 C 735.437 718.076, 722.399 709.431, 700.460 687.378 C 691.032 677.902, 682.581 670.301, 679.960 668.942 C 676.439 667.117, 673.605 666.575, 666.500 666.370 C 661.550 666.227, 655.700 666.506, 653.500 666.992 M 653.347 679.906 C 646.904 682.869, 646.306 688.556, 652.122 691.563 C 655.961 693.548, 669.190 694.471, 680.411 693.536 L 689.216 692.802 684.358 689.332 C 677.871 684.698, 666.443 679.328, 661.500 678.592 C 658.662 678.169, 656.293 678.550, 653.347 679.906 M 1118.369 703 C 1118.652 703.825, 1122.766 713.275, 1127.512 724 C 1155.583 787.444, 1176.972 850.405, 1189.989 907.911 C 1195.308 931.412, 1202 973.361, 1202 983.208 C 1202 985.294, 1202.373 987, 1202.830 987 C 1204.391 987, 1229.603 938.632, 1240.935 913.896 L 1247.168 900.291 1242.010 886.396 C 1226.577 844.824, 1198.745 797.892, 1162.759 752.758 C 1145.877 731.585, 1117.114 699.343, 1118.369 703 M 934.706 715.609 C 940.743 724.560, 948.501 738.037, 954.424 749.860 C 974.360 789.654, 983.950 826.269, 982.810 858.243 L 982.379 870.326 985.827 866.413 C 994.082 857.045, 1005.402 840.751, 1009.930 831.718 L 1014.834 821.936 1015.558 828.696 C 1016.605 838.474, 1015.350 859.146, 1013.111 869 C 1010.629 879.925, 1006.247 891.851, 1001.120 901.634 C 998.885 905.900, 997.179 909.513, 997.330 909.663 C 997.859 910.192, 1010.563 894.750, 1015.834 887.171 C 1026.490 871.847, 1035.641 850.463, 1038.588 834 C 1041.523 817.604, 1039.922 795.928, 1034.629 780.390 C 1029.704 765.933, 1018.163 746.377, 1007.546 734.500 L 1003.077 729.500 1003.038 740.114 C 1002.983 755.460, 1000.052 767.725, 994.941 774 C 993.219 776.114, 992.755 776.269, 991.937 775 C 991.405 774.175, 987.975 768.440, 984.316 762.255 C 975.831 747.912, 967.548 738.967, 948.513 723.590 C 940.155 716.838, 932.736 710.955, 932.025 710.516 C 931.315 710.076, 932.521 712.368, 934.706 715.609 M 837.908 760.568 C 823.782 765.650, 818.191 766.114, 760.500 766.994 C 698.855 767.935, 689.970 768.785, 670.876 775.575 C 655.300 781.114, 642.898 791.210, 636.173 803.828 C 633.199 809.407, 633.032 812.076, 635.872 808.654 C 637.924 806.181, 653.402 796.292, 661.823 792.074 C 679.487 783.225, 697.270 778.251, 723 774.964 C 727.675 774.366, 749.950 773.479, 772.500 772.991 C 816.497 772.040, 822.879 771.351, 834.151 766.332 C 837.260 764.948, 841.056 762.507, 842.588 760.908 C 844.121 759.308, 845.177 758.044, 844.937 758.098 C 844.697 758.152, 841.534 759.264, 837.908 760.568 M 678.031 804.631 C 663.855 807.249, 662.958 807.723, 659.561 814.370 C 656.963 819.452, 656.508 821.564, 656.164 830.122 C 655.738 840.731, 656.362 844.535, 662.626 869.500 C 672.565 909.116, 687.349 957.815, 696.474 981 C 701.230 993.081, 711.299 1013.634, 714.283 1017.351 L 716.573 1020.202 728.036 1008.290 C 747.223 988.355, 760.010 968.093, 767.459 945.825 C 775.831 920.797, 776.194 892.120, 768.503 863.226 C 763.432 844.175, 755.095 828.858, 744.552 819.221 C 737.595 812.863, 732.189 809.732, 722.390 806.385 C 715.582 804.059, 712.579 803.647, 700.500 803.378 C 690.855 803.163, 683.865 803.553, 678.031 804.631 M 544 822.202 C 544 823.086, 545.602 832.291, 547.560 842.655 C 562.770 923.177, 583.973 998.967, 611.510 1071.250 C 615.229 1081.013, 618.773 1089.004, 619.386 1089.009 C 620.617 1089.019, 655.311 1080.881, 655.815 1080.463 C 655.989 1080.320, 654.780 1077.526, 653.129 1074.255 C 651.478 1070.985, 646.948 1061.288, 643.062 1052.707 C 617.689 996.675, 599.495 938.095, 585.041 865.899 C 583.929 860.342, 583.860 860.260, 576.210 855.428 C 566.454 849.265, 555.915 838.771, 549.213 828.546 C 546.346 824.172, 544 821.317, 544 822.202 M 1560.167 902.380 C 1541.148 907.025, 1530.541 910.069, 1530 911.036 C 1528.798 913.183, 1507.837 967.185, 1496.928 996.236 C 1491.819 1009.841, 1487.478 1020.812, 1487.281 1020.614 C 1486.755 1020.088, 1483.407 983.626, 1480.935 951.500 C 1479.750 936.100, 1478.493 923.232, 1478.140 922.904 C 1477.788 922.576, 1463.468 925.707, 1446.317 929.862 L 1415.133 937.417 1402.947 968.959 C 1396.244 986.306, 1383.214 1020.525, 1373.991 1045 C 1364.769 1069.475, 1350.625 1106.765, 1342.562 1127.867 C 1334.498 1148.969, 1328.036 1166.369, 1328.201 1166.534 C 1328.366 1166.700, 1342.601 1163.385, 1359.833 1159.168 L 1391.164 1151.500 1405.160 1115 C 1412.858 1094.925, 1422.461 1069.732, 1426.500 1059.015 C 1431.993 1044.442, 1433.974 1040.156, 1434.360 1042.015 C 1434.960 1044.900, 1435.079 1046.229, 1439.001 1093.664 C 1442.824 1139.913, 1442.731 1139.220, 1445.013 1138.496 C 1446.011 1138.179, 1460.252 1134.634, 1476.659 1130.619 L 1506.490 1123.318 1520.757 1085.909 C 1528.603 1065.334, 1541.733 1030.725, 1549.934 1009 C 1564.427 970.608, 1580.602 928.306, 1588.915 907.057 C 1591.162 901.313, 1593 896.250, 1593 895.807 C 1593 894.465, 1590.619 894.942, 1560.167 902.380 M 1343.500 954.657 C 1248.473 977.698, 1231.576 982.366, 1215.500 990.021 C 1206.108 994.494, 1196.051 1001.864, 1190.069 1008.658 C 1181.274 1018.645, 1179.990 1021.627, 1149.667 1102.500 C 1142.243 1122.300, 1129.383 1156.189, 1121.089 1177.809 C 1104.571 1220.865, 1104.093 1222.263, 1106.139 1221.544 C 1106.887 1221.280, 1131.230 1215.218, 1160.234 1208.073 C 1228.426 1191.272, 1245.736 1186.189, 1261.187 1178.429 C 1273.504 1172.243, 1284.781 1162.280, 1291.493 1151.653 C 1295.440 1145.404, 1297 1141.460, 1325.978 1064.500 C 1336.332 1037, 1350.483 999.906, 1357.425 982.069 C 1364.366 964.232, 1369.923 949.349, 1369.773 948.996 C 1369.623 948.642, 1357.800 951.190, 1343.500 954.657 M 1119.500 1008.585 C 1105.200 1012.094, 1078.650 1018.606, 1060.500 1023.055 C 1026.266 1031.447, 1002.459 1038.737, 991.733 1044.112 C 978.130 1050.929, 966.051 1061.722, 959.257 1073.129 C 957.473 1076.125, 948.066 1099.708, 938.352 1125.538 C 928.638 1151.367, 911.802 1195.900, 900.938 1224.500 C 890.074 1253.100, 881.543 1276.633, 881.979 1276.795 C 883.139 1277.227, 980.819 1252.877, 999.045 1247.612 C 1038.747 1236.144, 1056.093 1225.758, 1068.544 1206 C 1072.542 1199.656, 1092.041 1149, 1090.485 1149 C 1087.755 1149, 1028.525 1163.911, 1028.209 1164.677 C 1028.022 1165.130, 1024.411 1174.455, 1020.185 1185.400 C 1013.495 1202.725, 1012.037 1205.674, 1008.920 1208.187 C 1006.008 1210.536, 1001.207 1212.119, 983.152 1216.685 C 970.948 1219.772, 960.728 1222.062, 960.441 1221.775 C 960.038 1221.372, 996.869 1122.450, 1014.685 1076.084 L 1017.535 1068.669 1037.517 1063.822 C 1065.409 1057.056, 1069 1056.228, 1069 1056.559 C 1069 1056.719, 1066.712 1062.734, 1063.917 1069.925 C 1061.121 1077.116, 1058.983 1083.385, 1059.167 1083.856 C 1059.454 1084.595, 1081.286 1079.648, 1112.500 1071.771 L 1121.500 1069.500 1134.212 1036.500 C 1141.203 1018.350, 1146.941 1003.163, 1146.962 1002.750 C 1147.012 1001.765, 1149.082 1001.325, 1119.500 1008.585 M 1266.082 1008.455 L 1240.664 1014.647 1236.239 1026.073 C 1233.805 1032.358, 1222.221 1062.925, 1210.497 1094 C 1198.773 1125.075, 1187.798 1154.070, 1186.107 1158.433 C 1184.417 1162.797, 1183.234 1166.568, 1183.479 1166.813 C 1184.424 1167.757, 1226.710 1156.632, 1230.620 1154.410 C 1232.982 1153.067, 1235.400 1150.667, 1236.287 1148.784 C 1238.029 1145.087, 1248.513 1117.647, 1266.007 1071 C 1272.505 1053.675, 1281.017 1031.219, 1284.924 1021.097 C 1288.831 1010.976, 1291.909 1002.597, 1291.764 1002.479 C 1291.619 1002.360, 1280.062 1005.049, 1266.082 1008.455 M 830.296 1078.358 C 814.234 1082.286, 800.672 1085.950, 800.160 1086.500 C 799.200 1087.529, 781.413 1133.598, 755.180 1203 C 746.968 1224.725, 733.835 1259.279, 725.995 1279.787 C 718.155 1300.295, 711.919 1317.253, 712.138 1317.471 C 712.678 1318.011, 836.917 1288.415, 837.800 1287.537 C 838.595 1286.745, 852.841 1249.646, 852.509 1249.230 C 852.390 1249.081, 838.392 1252.309, 821.403 1256.403 C 804.413 1260.496, 790.409 1263.742, 790.282 1263.616 C 790.156 1263.489, 792.098 1258.012, 794.597 1251.443 C 797.096 1244.874, 807.617 1217, 817.977 1189.500 C 833.097 1149.367, 858.957 1081.571, 862.509 1072.750 C 863.035 1071.444, 862.743 1071.027, 861.357 1071.108 C 860.336 1071.167, 846.358 1074.429, 830.296 1078.358 M 682 1114.104 C 661.925 1118.991, 635.946 1125.297, 624.268 1128.116 L 603.036 1133.241 592.923 1151.870 C 556.884 1218.257, 473.822 1373.141, 474.129 1373.383 C 474.742 1373.865, 536.344 1359.060, 537.096 1358.250 C 537.479 1357.837, 542.842 1348.050, 549.015 1336.500 C 555.187 1324.950, 560.601 1315.105, 561.046 1314.623 C 561.732 1313.879, 619.224 1299.861, 619.648 1300.335 C 619.730 1300.426, 617.852 1309.496, 615.474 1320.492 C 613.096 1331.488, 611.353 1340.686, 611.599 1340.932 C 612.194 1341.527, 673.246 1327.170, 674.116 1326.230 C 674.488 1325.829, 678.197 1309.525, 682.359 1290 C 709.006 1164.990, 721.154 1108.279, 721.611 1106.750 C 721.981 1105.513, 721.602 1105.032, 720.317 1105.108 C 719.318 1105.168, 702.075 1109.216, 682 1114.104 M 475.746 1163.878 C 442.332 1171.979, 414.583 1179.033, 414.083 1179.554 C 412.711 1180.980, 324.901 1408.203, 325.487 1408.809 C 325.792 1409.125, 388.169 1394.226, 388.501 1393.758 C 388.602 1393.616, 397.348 1370.969, 407.936 1343.431 L 427.189 1293.363 458.809 1285.873 L 490.428 1278.383 497.694 1259.505 C 501.690 1249.122, 504.777 1240.444, 504.554 1240.221 C 504.331 1239.997, 490.587 1243.054, 474.013 1247.013 C 457.439 1250.973, 443.614 1253.947, 443.290 1253.624 C 442.967 1253.300, 447.101 1241.627, 452.478 1227.683 L 462.255 1202.330 493.138 1194.967 C 510.124 1190.918, 524.389 1187.356, 524.838 1187.052 C 525.287 1186.749, 528.704 1178.625, 532.432 1169 C 536.159 1159.375, 539.435 1150.938, 539.712 1150.250 C 540.010 1149.507, 539.462 1149.030, 538.357 1149.075 C 537.336 1149.116, 509.161 1155.777, 475.746 1163.878 M 638.620 1177.397 L 633.740 1178.556 608.780 1225.354 C 595.051 1251.093, 584.051 1272.384, 584.334 1272.668 C 584.887 1273.221, 626.785 1263.548, 627.670 1262.663 C 627.961 1262.373, 631.269 1247.367, 635.022 1229.317 C 638.775 1211.268, 642.781 1192.246, 643.923 1187.047 C 645.065 1181.848, 646 1177.235, 646 1176.797 C 646 1175.821, 644.868 1175.913, 638.620 1177.397 M 1174.500 1243.980 C 1148.100 1250.448, 1105.350 1260.849, 1079.500 1267.093 L 1032.500 1278.445 1016.741 1289.717 C 995.083 1305.208, 963.887 1325.931, 936.712 1342.879 L 913.923 1357.091 901.712 1348.357 C 894.995 1343.554, 883.506 1335.141, 876.179 1329.663 L 862.859 1319.701 853.179 1321.912 C 819.890 1329.517, 771.500 1341.888, 771.500 1342.794 C 771.500 1344.741, 799.203 1374.040, 815.500 1389.330 C 834.130 1406.808, 851.666 1421.811, 869.096 1435.183 C 883.228 1446.026, 908.826 1464, 910.136 1464 C 912.312 1464, 948.583 1447.847, 968.500 1438.009 C 1063.584 1391.040, 1147.985 1324.665, 1216.801 1242.739 C 1221.311 1237.371, 1225 1232.759, 1225 1232.489 C 1225 1231.634, 1223.401 1231.998, 1174.500 1243.980" fill-rule="evenodd" style="paint-order: fill; fill: url('#gradient-1'); filter: url('#drop-shadow-filter-0') url('#point-light-filter-0') url('#grayscale-filter-0');" stroke="none" transform="matrix(1, 0, 0, 1, -2.842170943040401e-14, 0)"/>
</svg>